# xmcd
#
# Track frame offsets:
#	150
#	14389
#	31401
#	44375
#	56955
#	74784
#	91247
#	106706
#	120749
#	133518
#	146722
#	158419
#	171459
#	182026
#	194020
#	206973
#	219119
#	232320
#	246529
#	258739
#	269669
#	283393
#	298381
#
# Disc length: 4159 seconds
#
# Revision: 0
# Processed by: cddbd v1.5.1PL0 Copyright (c) Steve Scherf et al.
# Submitted via: dBpowerAMP V4.0
#
DISCID=86103d17
DTITLE=Belmonte e Amaraí - Amaraí Apresenta a Coletânea dos Grandes Sucesssos de Belmonte e Amaraí
DYEAR=1900
DGENRE=Country
TTITLE0=Saudade de Minha Terra
TTITLE1=Tu e as Nuvens
TTITLE2=Morrendo de Amor
TTITLE3=Pombinha Mensageira
TTITLE4=Te Amarei Toda Vida
TTITLE5=A Andorinha
TTITLE6=Morena Cheirosa
TTITLE7=Perdido de Amor
TTITLE8=Entre Lágrimas
TTITLE9=Desventura
TTITLE10=Incompreensão
TTITLE11=Desde que Te Vi
TTITLE12=Quando o Destino
TTITLE13=Terra Querida
TTITLE14=Lágrimas da Alma
TTITLE15=Saudade de Goiás
TTITLE16=Capricho do Destino
TTITLE17=Eterno Adeus
TTITLE18=Quero Esquecer
TTITLE19=Teu Adeus
TTITLE20=Somente Uma Vez (Solamente Una Vez)
TTITLE21=Sei Que Te Perdi
TTITLE22=A Fronha
EXTD=Belmonte e Amaraí - Amaraí Apresenta a Coletânea dos Grandes Sucesssos de Belmonte e Amaraí
EXTT0=
EXTT1=
EXTT2=
EXTT3=
EXTT4=
EXTT5=
EXTT6=
EXTT7=
EXTT8=
EXTT9=
EXTT10=
EXTT11=
EXTT12=
EXTT13=
EXTT14=
EXTT15=
EXTT16=
EXTT17=
EXTT18=
EXTT19=
EXTT20=
EXTT21=
EXTT22=
PLAYORDER=
